# xmcd
#
# Track frame offsets:
#	150
#	42569
#	93224
#	130749
#	165466
#
# Disc length: 2526 seconds
# Revision: 0
# Processed by: cddbd v1.5.2PL0 Copyright (c) Steve Scherf et al.
# Submitted via: dBpowerAMP V12.0
#
DISCID=3609dc05
DTITLE=Derek and the Dominos - Blues With The King
DYEAR=1900
DGENRE=Blues
TTITLE0=Why Does Love Got To Be So Sad
TTITLE1=Tell The Truth
TTITLE2=Let It Rain
TTITLE3=Everday I Have The Blues
TTITLE4=It's My Life Baby
EXTD=
EXTT0=
EXTT1=
EXTT2=
EXTT3=
EXTT4=
PLAYORDER=
